<?xml version="1.0" standalone="no"?>
<!DOCTYPE svg PUBLIC "-//W3C//DTD SVG 20010904//EN"
 "http://www.w3.org/TR/2001/REC-SVG-20010904/DTD/svg10.dtd">
<svg version="1.0" xmlns="http://www.w3.org/2000/svg"
 width="210.000000pt" height="210.000000pt" viewBox="0 0 210.000000 210.000000"
 preserveAspectRatio="xMidYMid meet">
<metadata>
Created by potrace 1.14, written by Peter Selinger 2001-2017
</metadata>
<g transform="translate(0.000000,210.000000) scale(0.100000,-0.100000)"
fill="#000000" stroke="none">
<path d="M453 1513 c-11 -10 -118 -92 -237 -182 -119 -91 -216 -167 -216 -170
0 -4 4 -12 9 -20 12 -19 21 -13 261 169 115 88 214 160 219 160 8 0 242 -172
296 -218 6 -4 45 -34 88 -67 70 -52 80 -57 93 -43 20 20 28 12 -211 193 -108
83 -209 160 -224 172 -31 28 -51 29 -78 6z"/>
<path d="M152 1181 c-9 -6 -12 -79 -10 -312 l3 -304 343 -3 c270 -2 342 0 343
10 1 7 3 145 4 306 1 265 0 294 -16 302 -9 5 -19 6 -23 3 -3 -3 -6 -134 -6
-290 0 -219 -3 -283 -12 -284 -16 -1 -570 -1 -580 0 -5 1 -8 126 -8 280 0 284
-4 313 -38 292z"/>
<path d="M1002 1120 c-13 -22 -16 -69 -4 -86 22 -34 82 -34 95 0 8 20 -10 21
-29 1 -30 -29 -55 6 -46 63 5 24 30 30 49 11 6 -6 17 -9 23 -7 9 3 8 9 -4 21
-24 23 -68 22 -84 -3z"/>
<path d="M1140 1131 c0 -6 13 -11 30 -13 l30 -3 -30 -45 c-16 -25 -30 -48 -30
-52 0 -5 23 -8 52 -8 62 0 60 15 -2 19 -20 1 -20 3 8 44 48 70 48 67 -7 67
-28 0 -51 -4 -51 -9z"/>
<path d="M1289 1138 c-1 -2 -2 -31 -3 -65 l-3 -63 44 0 c24 0 43 5 43 11 0 5
-8 9 -17 8 -34 -3 -43 1 -43 21 0 11 3 19 8 19 19 -3 42 2 42 10 0 4 -10 8
-22 7 -14 -1 -24 6 -26 17 -3 13 3 17 27 17 17 0 31 5 31 10 0 8 -78 15 -81 8z"/>
<path d="M1424 1115 c-37 -56 11 -129 66 -102 26 13 39 37 20 37 -6 0 -18 -7
-26 -15 -30 -30 -61 15 -43 63 10 26 34 28 56 7 20 -21 28 -12 13 14 -16 31
-65 28 -86 -4z"/>
<path d="M1566 1083 c2 -74 2 -73 14 -73 6 0 10 14 10 30 0 28 3 30 28 27 22
-3 27 -9 27 -30 -1 -16 5 -27 12 -27 9 0 13 19 13 65 0 37 -4 65 -10 65 -5 0
-11 -6 -11 -12 -1 -7 -2 -20 -3 -28 -1 -13 -11 -16 -46 -11 -5 0 -10 12 -10
26 0 14 -6 25 -13 25 -8 0 -12 -17 -11 -57z"/>
<path d="M340 980 l0 -70 65 0 65 0 0 70 0 70 -65 0 -65 0 0 -70z"/>
<path d="M510 980 l0 -70 65 0 c36 0 65 4 66 10 1 6 1 33 1 60 0 28 0 55 -1
60 -1 6 -30 10 -66 10 l-65 0 0 -70z"/>
<path d="M1003 921 c-14 -10 -10 -124 5 -129 7 -2 12 6 12 22 0 19 6 25 26 28
37 4 59 38 41 62 -13 18 -67 29 -84 17z m65 -25 c10 -11 -9 -36 -28 -36 -15 0
-20 7 -20 24 0 20 4 24 21 21 12 -3 24 -7 27 -9z"/>
<path d="M1140 858 c0 -51 3 -69 13 -65 6 2 11 11 9 20 -5 29 20 30 43 1 26
-32 43 -28 25 6 -6 12 -8 29 -4 38 19 45 5 63 -51 67 l-35 2 0 -69z m65 26 c0
-12 -8 -20 -21 -22 -16 -2 -20 2 -18 20 1 13 3 24 3 25 1 1 9 0 19 -1 9 -2 17
-11 17 -22z"/>
<path d="M1320 923 c-55 -21 -44 -133 13 -133 38 1 57 23 57 68 0 31 -5 45
-22 56 -24 17 -25 17 -48 9z m48 -65 c-4 -40 -34 -60 -52 -35 -14 18 -10 68 7
79 22 14 48 -12 45 -44z"/>
<path d="M1447 922 c-2 -4 -5 -35 -5 -69 -1 -50 2 -63 14 -63 8 0 14 6 13 13
-3 28 2 37 25 37 13 0 29 7 36 15 16 20 4 65 -18 66 -9 0 -27 2 -39 5 -12 2
-24 0 -26 -4z m69 -51 c-4 -6 -18 -11 -30 -11 -27 0 -31 31 -6 41 18 8 45 -15
36 -30z"/>
<path d="M1590 859 l0 -69 45 0 c25 0 45 5 45 10 0 6 -16 10 -35 10 -28 0 -35
4 -35 20 0 16 7 20 31 20 17 0 28 4 24 10 -3 6 -17 10 -31 10 -19 0 -25 5 -22
18 2 11 12 17 30 17 28 0 52 14 27 16 -8 1 -29 2 -46 4 l-33 2 0 -68z"/>
<path d="M1726 923 c-3 -4 -6 -35 -6 -70 0 -47 3 -64 13 -60 6 2 11 14 9 25
-4 30 22 28 42 -3 22 -34 38 -33 25 2 -5 14 -7 34 -3 42 13 29 12 40 -1 51
-16 13 -70 22 -79 13z m57 -22 c4 -1 7 -10 7 -22 0 -29 -42 -22 -46 8 -3 16 1
20 14 18 9 -2 20 -4 25 -4z"/>
<path d="M1855 921 c-12 -11 -3 -20 15 -16 18 4 20 -2 20 -56 0 -43 4 -59 13
-59 10 0 14 14 13 51 -2 45 1 52 24 64 14 8 23 15 20 16 -13 4 -101 4 -105 0z"/>
<path d="M2003 923 c-9 -3 -6 -16 10 -46 13 -23 23 -52 22 -64 -1 -14 3 -23
11 -23 8 0 14 11 14 25 0 14 9 43 20 65 11 22 16 41 10 45 -5 3 -16 -8 -25
-25 -8 -16 -18 -30 -20 -30 -3 0 -11 13 -17 29 -7 15 -19 26 -25 24z"/>
<path d="M340 801 l0 -69 65 1 65 1 0 68 0 68 -65 0 -65 0 0 -69z"/>
<path d="M510 801 l0 -69 60 0 c76 0 80 9 71 126 -1 8 -21 12 -66 12 l-65 0 0
-69z"/>
<path d="M1006 697 c-24 -17 -12 -41 32 -68 36 -21 37 -22 14 -32 -18 -8 -25
-7 -36 8 -10 14 -15 15 -21 5 -9 -15 19 -40 46 -40 21 0 49 26 49 46 0 8 -16
22 -35 30 -38 15 -48 44 -15 44 11 0 20 -4 20 -10 0 -5 7 -10 15 -10 21 0 19
17 -4 30 -26 13 -43 13 -65 -3z"/>
<path d="M1137 703 c-2 -5 -3 -35 -2 -67 l0 -60 43 -2 c28 -1 42 3 42 11 0 7
-12 12 -27 11 -21 -1 -29 4 -31 20 -3 18 1 21 24 16 20 -4 25 -1 22 9 -3 8
-15 13 -26 11 -17 -2 -22 2 -22 17 0 17 6 21 30 21 17 0 30 5 30 10 0 11 -77
14 -83 3z"/>
<path d="M1270 639 c0 -39 4 -69 10 -69 6 0 10 11 10 24 0 38 16 40 41 4 24
-33 39 -24 20 11 -7 13 -8 22 -1 26 14 9 12 51 -2 62 -7 6 -28 11 -45 11 l-33
1 0 -70z m67 36 c7 -19 4 -22 -22 -27 -14 -2 -21 3 -23 20 -3 17 2 22 18 22
11 0 23 -7 27 -15z"/>
<path d="M1405 689 c3 -13 10 -33 15 -44 5 -11 14 -32 19 -47 15 -40 33 -26
54 40 20 65 21 72 8 72 -5 0 -15 -17 -21 -37 -6 -21 -14 -45 -17 -53 -2 -9
-12 6 -21 34 -17 51 -51 82 -37 35z"/>
<path d="M1560 646 c0 -36 4 -67 9 -70 13 -8 18 13 15 69 -2 65 -2 65 -14 65
-6 0 -10 -28 -10 -64z"/>
<path d="M1664 702 c-14 -9 -31 -44 -28 -59 1 -7 2 -21 3 -31 3 -40 81 -52 96
-15 9 24 -3 28 -25 8 -26 -24 -50 -5 -50 41 0 25 5 34 21 39 15 5 25 2 31 -9
10 -17 28 -22 28 -7 0 29 -50 50 -76 33z"/>
<path d="M1797 703 c-4 -3 -7 -34 -7 -68 l0 -61 39 0 c37 1 70 15 40 17 -8 1
-23 2 -34 3 -11 0 -21 9 -23 19 -3 12 3 17 22 17 14 0 28 5 31 10 6 10 -6 14
-38 10 -13 -1 -18 4 -15 17 2 12 14 19 36 21 18 2 30 8 27 13 -7 10 -68 12
-78 2z"/>
</g>
</svg>
